# xmcd CD database file
#
# Track frame offsets:
#	150
#	21592
#	42053
#	64121
#	85564
#	108462
#	131371
#	148663
#	170242
#	194637
#
# Disc length: 2868 seconds
#
# Revision: 0
# Processed by: cddbd v1.5.2PL0 Copyright (c) Steve Scherf et al.
# Submitted via: CDex 1.51
#
DISCID=8e0b320a
DTITLE=Jesse Robinson - Stray Star
DYEAR=2014
DGENRE=Blues
TTITLE0=Jesse Robinson - CHASING THE WIND
TTITLE1=Jesse Robinson - IN YOU THERES ANOTHER
TTITLE2=Jesse Robinson - RACHEL
TTITLE3=Jesse Robinson - STRAY STAR
TTITLE4=Jesse Robinson - SOLITUDE WITH COMPANY
TTITLE5=Jesse Robinson - MY ADDICTION IS YOU
TTITLE6=Jesse Robinson - YOU FLED FROM ME
TTITLE7=Jesse Robinson - ALWAYS IN YOUR HANDS
TTITLE8=Jesse Robinson - MY GIRLFRIEND
TTITLE9=Jesse Robinson - FIRST ONE DOOR THEN
EXTD=YEAR: 2014
EXTT0=
EXTT1=
EXTT2=
EXTT3=
EXTT4=
EXTT5=
EXTT6=
EXTT7=
EXTT8=
EXTT9=
PLAYORDER=
